<svg width="487" height="487" viewBox="0 0 487 487" fill="none" xmlns="http://www.w3.org/2000/svg">
<g clip-path="url(#clip0)">
<path d="M451.2 202.8C475.2 179.6 486.4 149.2 486.4 115.6C486.4 41.2 424.8 18.8 347.2 18.8C305.6 18.8 268.8 25.2 243.2 42.8C217.6 25.2 180 18.8 138.4 18.8C60.8 19.6 0 41.2 0 115.6C0 149.2 11.2 179.6 35.2 202.8V393.2C35.2 442 9.6 482.8 58.4 482.8H428.8C477.6 482.8 452 442 452 393.2V202.8H451.2Z" fill="#AD6B1A"/>
<path d="M451.2 187.6C475.2 164.4 486.4 134 486.4 100.4C486.4 26 424.8 3.60001 347.2 3.60001C305.6 3.60001 268.8 10 243.2 27.6C217.6 10 180 3.60001 138.4 3.60001C60.8 4.40001 0 26 0 100.4C0 134 11.2 164.4 35.2 187.6V378C35.2 426.8 9.6 466.8 58.4 466.8H428.8C477.6 466.8 452 426.8 452 378V187.6H451.2Z" fill="#C47E22"/>
<path d="M428 466.8C476.8 466.8 451.2 426.8 451.2 378V187.6C475.2 164.4 486.4 134 486.4 100.4C486.4 26 424.8 3.60001 347.2 3.60001C305.6 3.60001 268.8 10 243.2 27.6C217.6 10 179.2 3.60001 137.6 3.60001" fill="#C47E22"/>
<path d="M419.2 194C435.2 174.8 444.8 150 444.8 122.8C444.8 62 392.8 44.4 329.6 44.4C296 44.4 264.8 50 244 63.6C223.2 49.2 192.8 44.4 158.4 44.4C95.2 44.4 41.6 62 41.6 122.8C41.6 150 51.2 174.8 67.2 194V349.2C67.2 389.2 52.8 434.8 92 434.8H393.6C433.6 434.8 418.4 388.4 418.4 349.2V194H419.2Z" fill="#F2E5A2"/>
<path d="M394.4 434.8C434.4 434.8 419.2 388.4 419.2 349.2V194C435.2 174.8 444.8 150 444.8 122.8C444.8 62 392.8 44.4 329.6 44.4C296 44.4 264.8 50 244 63.6C223.2 49.2 193.6 44.4 159.2 44.4" fill="#E2CE8D"/>
<path d="M147.2 180.4C158.246 180.4 167.2 171.446 167.2 160.4C167.2 149.354 158.246 140.4 147.2 140.4C136.154 140.4 127.2 149.354 127.2 160.4C127.2 171.446 136.154 180.4 147.2 180.4Z" fill="#E2CE8D"/>
<path d="M248 400.4C259.046 400.4 268 391.446 268 380.4C268 369.354 259.046 360.4 248 360.4C236.954 360.4 228 369.354 228 380.4C228 391.446 236.954 400.4 248 400.4Z" fill="#E2CE8D"/>
<path d="M379.2 143.6C390.246 143.6 399.2 134.646 399.2 123.6C399.2 112.554 390.246 103.6 379.2 103.6C368.154 103.6 359.2 112.554 359.2 123.6C359.2 134.646 368.154 143.6 379.2 143.6Z" fill="#F2E5A2"/>
<path d="M139.2 348.4C146.269 348.4 152 342.669 152 335.6C152 328.531 146.269 322.8 139.2 322.8C132.131 322.8 126.4 328.531 126.4 335.6C126.4 342.669 132.131 348.4 139.2 348.4Z" fill="#E2CE8D"/>
<path d="M123.2 246C128.944 246 133.6 241.344 133.6 235.6C133.6 229.856 128.944 225.2 123.2 225.2C117.456 225.2 112.8 229.856 112.8 235.6C112.8 241.344 117.456 246 123.2 246Z" fill="#E2CE8D"/>
<path d="M196 296.4C201.744 296.4 206.4 291.744 206.4 286C206.4 280.256 201.744 275.6 196 275.6C190.256 275.6 185.6 280.256 185.6 286C185.6 291.744 190.256 296.4 196 296.4Z" fill="#E2CE8D"/>
<path d="M323.2 241.2C328.944 241.2 333.6 236.544 333.6 230.8C333.6 225.056 328.944 220.4 323.2 220.4C317.456 220.4 312.8 225.056 312.8 230.8C312.8 236.544 317.456 241.2 323.2 241.2Z" fill="#F2E5A2"/>
<path d="M103.2 115.6C107.618 115.6 111.2 112.018 111.2 107.6C111.2 103.182 107.618 99.6 103.2 99.6C98.7817 99.6 95.2 103.182 95.2 107.6C95.2 112.018 98.7817 115.6 103.2 115.6Z" fill="#E2CE8D"/>
<path d="M188 218C192.418 218 196 214.418 196 210C196 205.582 192.418 202 188 202C183.582 202 180 205.582 180 210C180 214.418 183.582 218 188 218Z" fill="#E2CE8D"/>
<path d="M304.8 146C309.218 146 312.8 142.418 312.8 138C312.8 133.582 309.218 130 304.8 130C300.382 130 296.8 133.582 296.8 138C296.8 142.418 300.382 146 304.8 146Z" fill="#F2E5A2"/>
<path d="M257.6 284.4C260.251 284.4 262.4 282.251 262.4 279.6C262.4 276.949 260.251 274.8 257.6 274.8C254.949 274.8 252.8 276.949 252.8 279.6C252.8 282.251 254.949 284.4 257.6 284.4Z" fill="#E2CE8D"/>
<path d="M367.2 278.8C369.851 278.8 372 276.651 372 274C372 271.349 369.851 269.2 367.2 269.2C364.549 269.2 362.4 271.349 362.4 274C362.4 276.651 364.549 278.8 367.2 278.8Z" fill="#F2E5A2"/>
<path d="M182.49 155H231.36C233.34 155 235.05 155.72 236.49 157.16C237.93 158.6 238.65 160.31 238.65 162.29V336.71C238.65 338.69 237.93 340.4 236.49 341.84C235.05 343.28 233.34 344 231.36 344H188.7C184.02 344 180.33 341.93 177.63 337.79L132 268.94V336.71C132 338.69 131.28 340.4 129.84 341.84C128.4 343.28 126.69 344 124.71 344H75.84C73.86 344 72.15 343.28 70.71 341.84C69.27 340.4 68.55 338.69 68.55 336.71V162.29C68.55 160.31 69.27 158.6 70.71 157.16C72.15 155.72 73.86 155 75.84 155H118.5C123.54 155 127.23 157.07 129.57 161.21L175.2 236V162.29C175.2 160.31 175.92 158.6 177.36 157.16C178.8 155.72 180.51 155 182.49 155ZM280.977 155H417.057C419.037 155 420.747 155.72 422.187 157.16C423.627 158.6 424.347 160.31 424.347 162.29V203.33C424.347 205.31 423.627 207.02 422.187 208.46C420.747 209.9 419.037 210.62 417.057 210.62H339.837V230.6H411.657C413.637 230.6 415.347 231.32 416.787 232.76C418.227 234.2 418.947 235.91 418.947 237.89V278.66C418.947 280.64 418.227 282.35 416.787 283.79C415.347 285.23 413.637 285.95 411.657 285.95H339.837V336.71C339.837 338.69 339.117 340.4 337.677 341.84C336.237 343.28 334.527 344 332.547 344H280.977C278.997 344 277.287 343.28 275.847 341.84C274.407 340.4 273.687 338.69 273.687 336.71V162.29C273.687 160.31 274.407 158.6 275.847 157.16C277.287 155.72 278.997 155 280.977 155Z" fill="#4A1F36"/>
</g>
<defs>
<clipPath id="clip0">
<rect width="486.4" height="486.4" fill="white"/>
</clipPath>
</defs>
</svg>
